<?xml version="1.0" encoding="utf-8"?>
<!-- Generator: Adobe Illustrator 16.0.0, SVG Export Plug-In . SVG Version: 6.00 Build 0)  -->
<!DOCTYPE svg PUBLIC "-//W3C//DTD SVG 1.1//EN" "http://www.w3.org/Graphics/SVG/1.1/DTD/svg11.dtd">
<svg version="1.1" xmlns="http://www.w3.org/2000/svg" xmlns:xlink="http://www.w3.org/1999/xlink" x="0px" y="0px" width="557px"
	 height="281px" viewBox="0 0 557 281" enable-background="new 0 0 557 281" xml:space="preserve">
<g id="Background">
	<g>
		<path fill-rule="evenodd" clip-rule="evenodd" fill="currentColor" d="M360,66c6,1,13,7,19,11c16,12,39,27,54,44v3c-2,1-4,1-6,1
			c-3,0-50-11-73-18c-7-2-13-4-18-8c-8-5-15-12-22-18c-2-1-14-11-14-15c0-6,11-4,13-4C316,62,345,62,360,66z M99,0l67,11h34
			c88,5,178,37,269,127c7,8,20,10,30,15c16,9,47,28,54,49c2,6,4,17,4,20c0,24-17,45-48,55c-5,1-14,4-17,4H7H0V0h9H99z"/>
		<line fill-rule="evenodd" clip-rule="evenodd" fill="currentColor" x1="0" y1="281" x2="9" y2="281"/>
	</g>
</g>
<g id="Layer_1">
</g>
</svg>
